<svg width="40" height="40" viewBox="0 0 40 40" fill="none" xmlns="http://www.w3.org/2000/svg">
<g id="email-outlined-envelope-back-symbol_icon-icons.com_57846 1" clip-path="url(#clip0_150_91)">
<g id="Group">
<path id="Vector" d="M36.8 7.19995H3.2C1.43996 7.19995 0 8.63999 0 10.4V29.6C0 31.3599 1.43996 32.8 3.2 32.8H36.8C38.56 32.8 40 31.3599 40 29.6V10.4C40 8.63999 38.56 7.19995 36.8 7.19995ZM36 8.80004L20 22.7201L3.99996 8.80004H36ZM2.07996 30.72C1.75996 30.4 1.6 30.08 1.6 29.6V10.4C1.6 9.91999 1.76004 9.59999 2.07996 9.27991L14.4 20L2.07996 30.72ZM3.99996 31.2L15.68 21.12L20 24.8L24.32 21.12L36 31.2L3.99996 31.2ZM38.4 29.6C38.4 30.0799 38.24 30.3999 37.92 30.72L25.6 20L37.92 9.27991C38.24 9.59991 38.4 9.91991 38.4 10.4V29.6Z" fill="#0B245B" fill-opacity="0.5"/>
</g>
</g>
<defs>
<clipPath id="clip0_150_91">
<rect width="40" height="40" fill="white"/>
</clipPath>
</defs>
</svg>
