<svg width="100" height="100" viewBox="0 0 100 100" fill="none" xmlns="http://www.w3.org/2000/svg">
<g id="Group 32">
<circle id="Ellipse 14" cx="35" cy="65" r="15" fill="#01F5F5" fill-opacity="0.5"/>
<path id="Rectangle 19" d="M1.275 15.3C1.275 7.55421 7.55421 1.275 15.3 1.275H84.7C92.4458 1.275 98.725 7.55421 98.725 15.3V84.7C98.725 92.4458 92.4458 98.725 84.7 98.725H15.3C7.55421 98.725 1.275 92.4458 1.275 84.7V15.3Z" stroke="#0B245B" stroke-width="2.55"/>
<g id="Group 9">
<path id="Rectangle 105" d="M25.5 34.4286L50.7424 25.5L75.2948 34.4286C76.5939 54.757 72.0517 63.9619 52.2374 75.5C33.6547 69.2576 26.5759 61.7373 25.5 34.4286Z" stroke="#0B245B" stroke-width="2.55"/>
<path id="Vector 14" d="M40.6797 49.0616L47.308 55.0477C47.726 55.4252 48.3597 55.4324 48.7861 55.0645L60.1721 45.2422" stroke="#0B245B" stroke-width="2.55"/>
</g>
</g>
</svg>
